<svg width="30" height="29" viewBox="0 0 30 29" fill="none" xmlns="http://www.w3.org/2000/svg">
<rect width="28.8" height="28.8" transform="translate(0.899902 0.0999756)" fill="white"/>
<path d="M27.2999 14.5V21.7C27.2999 24.3509 25.1509 26.5 22.4999 26.5H8.09993C5.44896 26.5 3.29993 24.3509 3.29993 21.7V7.29997C3.29993 4.649 5.44896 2.49997 8.09993 2.49997H15.2999M19.7236 4.92727C19.7236 4.92727 19.7236 6.64362 21.4399 8.35998C23.1563 10.0763 24.8726 10.0763 24.8726 10.0763M11.8855 19.2874L15.4899 18.7725C16.0098 18.6983 16.4916 18.4574 16.863 18.086L26.589 8.35998C27.5369 7.41206 27.5369 5.87518 26.589 4.92726L24.8726 3.21091C23.9247 2.26299 22.3878 2.26299 21.4399 3.21091L11.7139 12.9369C11.3425 13.3083 11.1016 13.7901 11.0274 14.31L10.5124 17.9144C10.398 18.7153 11.0846 19.4019 11.8855 19.2874Z" stroke="#181818" stroke-width="1.8" stroke-linecap="round"/>
</svg>
