<svg width="25" height="25" viewBox="0 0 25 25" fill="none" xmlns="http://www.w3.org/2000/svg">
<g clip-path="url(#clip0_23_177)">
<path fill-rule="evenodd" clip-rule="evenodd" d="M18.9572 21.987C18.9626 21.3274 18.7175 20.6902 18.2715 20.2042L10.9824 12.5002L18.2715 4.79616C18.7181 4.31153 18.9661 3.67662 18.9661 3.01759C18.9661 2.35856 18.7181 1.72365 18.2715 1.23902C18.0579 1.00596 17.7982 0.819873 17.5088 0.692565C17.2195 0.565257 16.9068 0.499516 16.5907 0.499516C16.2745 0.499516 15.9619 0.565257 15.6725 0.692565C15.3831 0.819873 15.1234 1.00596 14.9098 1.23902L5.94066 10.7225C5.49219 11.2051 5.24292 11.8396 5.24292 12.4985C5.24292 13.1573 5.49219 13.7918 5.94066 14.2744L14.9012 23.7613C15.1148 23.9944 15.3746 24.1805 15.6639 24.3078C15.9533 24.4351 16.266 24.5008 16.5821 24.5008C16.8982 24.5008 17.2109 24.4351 17.5003 24.3078C17.7896 24.1805 18.0494 23.9944 18.2629 23.7613C18.7084 23.2783 18.9536 22.644 18.9487 21.987" fill="#403B36"/>
</g>
<defs>
<clipPath id="clip0_23_177">
<rect width="24" height="24" fill="white" transform="translate(0.100098 0.499969)"/>
</clipPath>
</defs>
</svg>
