<svg width="25" height="25" viewBox="0 0 25 25" fill="none" xmlns="http://www.w3.org/2000/svg">
<g clip-path="url(#clip0_23_175)">
<path fill-rule="evenodd" clip-rule="evenodd" d="M5.44288 3.01292C5.43753 3.67258 5.68258 4.30972 6.1286 4.79577L13.4177 12.4998L6.1286 20.2038C5.682 20.6884 5.43407 21.3233 5.43407 21.9823C5.43407 22.6414 5.682 23.2763 6.1286 23.7609C6.34219 23.994 6.60192 24.1801 6.89128 24.3074C7.18065 24.4347 7.49332 24.5004 7.80945 24.5004C8.12558 24.5004 8.43826 24.4347 8.72762 24.3074C9.01699 24.1801 9.27672 23.994 9.49031 23.7609L18.4595 14.2775C18.9079 13.7948 19.1572 13.1604 19.1572 12.5015C19.1572 11.8426 18.9079 11.2082 18.4595 10.7255L9.49888 1.23863C9.28529 1.00558 9.02556 0.819483 8.7362 0.692175C8.44683 0.564867 8.13416 0.499126 7.81802 0.499126C7.50189 0.499126 7.18922 0.564867 6.89985 0.692175C6.61049 0.819483 6.35076 1.00558 6.13717 1.23863C5.6917 1.7216 5.44656 2.3559 5.45145 3.01292" fill="#403B36"/>
</g>
<defs>
<clipPath id="clip0_23_175">
<rect width="24" height="24" fill="white" transform="matrix(-1 0 0 -1 24.3 24.5)"/>
</clipPath>
</defs>
</svg>
