<svg width="30" height="29" viewBox="0 0 30 29" fill="none" xmlns="http://www.w3.org/2000/svg">
<path fill-rule="evenodd" clip-rule="evenodd" d="M15.3002 26.5C21.9276 26.5 27.3002 21.1274 27.3002 14.5C27.3002 7.87256 21.9276 2.49998 15.3002 2.49998C8.67275 2.49998 3.30017 7.87256 3.30017 14.5C3.30017 21.1274 8.67275 26.5 15.3002 26.5ZM16.2002 8.49998C16.2002 8.00292 15.7972 7.59998 15.3002 7.59998C14.8031 7.59998 14.4002 8.00292 14.4002 8.49998V14.5C14.4002 14.8874 14.6481 15.2313 15.0156 15.3538L18.6156 16.5538C19.0871 16.711 19.5968 16.4561 19.754 15.9846C19.9112 15.513 19.6563 15.0033 19.1848 14.8462L16.2002 13.8513V8.49998Z" fill="#D9614C"/>
</svg>
