<svg width="30" height="30" viewBox="0 0 30 30" fill="none" xmlns="http://www.w3.org/2000/svg">
<path d="M22.5874 11.6702L21.6931 11.7717L22.5874 11.6702ZM23.124 16.3983L24.0183 16.2968L23.124 16.3983ZM7.07587 16.3983L6.18161 16.2968L7.07587 16.3983ZM7.6125 11.6702L8.50676 11.7717L7.6125 11.6702ZM6.03728 18.7465L5.35195 18.1631H5.35195L6.03728 18.7465ZM24.1626 18.7465L23.4773 19.3299L24.1626 18.7465ZM17.8239 6.14835H16.9239C16.9239 6.53305 17.1684 6.87521 17.5323 6.99983L17.8239 6.14835ZM12.376 6.14835L12.6675 6.99983C13.0315 6.87521 13.276 6.53305 13.276 6.14835H12.376ZM19.5427 25.2158C19.7171 24.7504 19.4812 24.2316 19.0158 24.0572C18.5503 23.8828 18.0316 24.1187 17.8572 24.5841L19.5427 25.2158ZM12.3427 24.5841C12.1683 24.1187 11.6495 23.8828 11.1841 24.0572C10.7187 24.2316 10.4827 24.7504 10.6572 25.2158L12.3427 24.5841ZM22.0326 21.6H8.16732V23.4H22.0326V21.6ZM21.6931 11.7717L22.2297 16.4998L24.0183 16.2968L23.4816 11.5687L21.6931 11.7717ZM7.97013 16.4998L8.50676 11.7717L6.71824 11.5687L6.18161 16.2968L7.97013 16.4998ZM6.72261 19.3299C7.41539 18.516 7.85228 17.5381 7.97013 16.4998L6.18161 16.2968C6.10617 16.9615 5.82475 17.6077 5.35195 18.1631L6.72261 19.3299ZM22.2297 16.4998C22.3476 17.5381 22.7845 18.516 23.4773 19.3299L24.8479 18.1631C24.3751 17.6077 24.0937 16.9615 24.0183 16.2968L22.2297 16.4998ZM8.16732 21.6C7.38127 21.6 6.82525 21.2112 6.56861 20.759C6.32085 20.3224 6.3245 19.7976 6.72261 19.3299L5.35195 18.1631C4.43363 19.242 4.40527 20.5939 5.00312 21.6474C5.59209 22.6852 6.75931 23.4 8.16732 23.4V21.6ZM22.0326 23.4C23.4406 23.4 24.6078 22.6852 25.1968 21.6474C25.7946 20.5939 25.7663 19.242 24.8479 18.1631L23.4773 19.3299C23.8754 19.7976 23.879 20.3224 23.6313 20.759C23.3746 21.2112 22.8186 21.6 22.0326 21.6V23.4ZM18.7239 6.14835V6.02389H16.9239V6.14835H18.7239ZM23.4816 11.5687C23.1466 8.61627 20.9566 6.26967 18.1154 5.29688L17.5323 6.99983C19.8329 7.78751 21.4495 9.62517 21.6931 11.7717L23.4816 11.5687ZM13.276 6.14835V6.02389H11.476V6.14835H13.276ZM8.50676 11.7717C8.75038 9.62517 10.367 7.78751 12.6675 6.99983L12.0845 5.29688C9.24327 6.26967 7.05333 8.61627 6.71824 11.5687L8.50676 11.7717ZM15.0999 4.19996C16.1073 4.19996 16.9239 5.01656 16.9239 6.02389H18.7239C18.7239 4.02245 17.1014 2.39996 15.0999 2.39996V4.19996ZM15.0999 2.39996C13.0985 2.39996 11.476 4.02245 11.476 6.02389H13.276C13.276 5.01656 14.0926 4.19996 15.0999 4.19996V2.39996ZM17.8572 24.5841C17.4699 25.6174 16.4014 26.4 15.0999 26.4V28.2C17.1225 28.2 18.8819 26.979 19.5427 25.2158L17.8572 24.5841ZM15.0999 26.4C13.7984 26.4 12.73 25.6174 12.3427 24.5841L10.6572 25.2158C11.318 26.979 13.0774 28.2 15.0999 28.2V26.4Z" fill="#28303F"/>
</svg>
