<svg width="29" height="29" viewBox="0 0 29 29" fill="none" xmlns="http://www.w3.org/2000/svg">
<path d="M9.69995 12.1H19.3M9.69995 16.9H19.3M9.69995 21.7H14.5M9.69995 4.89997C9.69995 6.22545 10.7745 7.29997 12.1 7.29997H16.9C18.2254 7.29997 19.3 6.22545 19.3 4.89997M9.69995 4.89997C9.69995 3.57449 10.7745 2.49997 12.1 2.49997H16.9C18.2254 2.49997 19.3 3.57449 19.3 4.89997M9.69995 4.89997H8.49995C5.84898 4.89997 3.69995 7.049 3.69995 9.69997V21.7C3.69995 24.3509 5.84898 26.5 8.49995 26.5H20.5C23.1509 26.5 25.3 24.3509 25.3 21.7V9.69997C25.3 7.049 23.1509 4.89997 20.5 4.89997H19.3" stroke="#28303F" stroke-width="1.8" stroke-linecap="round"/>
</svg>
