<svg width="220" height="42" viewBox="0 0 220 42" fill="none" xmlns="http://www.w3.org/2000/svg">
<g filter="url(#filter0_d_23_93)">
<path d="M16.969 30.4472C16.969 30.8216 16.0762 31.124 14.2906 31.3544C12.5338 31.5848 10.777 31.7 9.02021 31.7C7.26341 31.7 6.14021 31.5992 5.65061 31.3976C5.16101 31.196 4.91621 30.8792 4.91621 30.4472V3.92238C4.91621 3.20238 5.73701 2.53998 7.37861 1.93518C9.04901 1.33038 10.9354 1.02798 13.0378 1.02798C13.7866 1.02798 14.3482 1.05678 14.7226 1.11438C15.7018 1.25838 16.393 1.87758 16.7962 2.97198L20.9434 14.1176H21.1162V3.92238C21.1162 3.20238 21.937 2.53998 23.5786 1.93518C25.2202 1.33038 27.0922 1.02798 29.1946 1.02798C31.009 1.02798 32.161 1.37358 32.6506 2.06478C32.9962 2.55438 33.169 3.00078 33.169 3.40398V30.4472C33.169 30.8216 32.2762 31.124 30.4906 31.3544C28.7338 31.5848 26.7898 31.7 24.6586 31.7C22.5562 31.7 21.4042 31.4264 21.2026 30.8792L17.185 20.252H16.969V30.4472ZM51.2428 32.0888C48.8524 32.0888 46.7932 31.8728 45.0652 31.4408C43.366 30.98 41.7964 30.1736 40.3564 29.0216C37.4476 26.7464 35.9932 22.3832 35.9932 15.932C35.9932 13.2248 36.382 10.8632 37.1596 8.84718C37.966 6.83118 39.0748 5.23278 40.486 4.05198C43.2508 1.74798 46.8364 0.59598 51.2428 0.59598C53.518 0.59598 55.4908 0.79758 57.1612 1.20078C58.8604 1.60398 60.4588 2.33838 61.9564 3.40398C64.9804 5.59278 66.4924 9.76878 66.4924 15.932C66.4924 21.4616 65.1244 25.5368 62.3884 28.1576C59.6524 30.7784 55.9372 32.0888 51.2428 32.0888ZM49.8172 24.7016C50.1628 25.1048 50.638 25.3064 51.2428 25.3064C51.8476 25.3064 52.3228 25.1048 52.6684 24.7016C53.014 24.2696 53.302 23.3768 53.5324 22.0232C53.7628 20.6408 53.878 18.7256 53.878 16.2776C53.878 13.8296 53.7628 11.9432 53.5324 10.6184C53.302 9.29358 53.014 8.42958 52.6684 8.02638C52.3228 7.62318 51.8476 7.42158 51.2428 7.42158C50.638 7.42158 50.1628 7.62318 49.8172 8.02638C49.4716 8.42958 49.1836 9.29358 48.9532 10.6184C48.7228 11.9432 48.6076 13.8296 48.6076 16.2776C48.6076 18.7256 48.7228 20.6408 48.9532 22.0232C49.1836 23.3768 49.4716 24.2696 49.8172 24.7016ZM87.6543 30.6632C87.6543 30.98 86.7615 31.2392 84.9759 31.4408C83.2191 31.6136 81.4479 31.7 79.6623 31.7C77.9055 31.7 76.7823 31.628 76.2927 31.484C75.8319 31.3112 75.6015 31.0376 75.6015 30.6632V12.0872H69.5967C69.2799 12.0872 69.0063 11.684 68.7759 10.8776C68.5455 10.0712 68.4303 8.87598 68.4303 7.29198C68.4303 5.67918 68.6031 4.23918 68.9487 2.97198C69.2943 1.67598 69.7551 1.02798 70.3311 1.02798H93.7023C94.1343 1.02798 94.4223 1.43118 94.5663 2.23758C94.7391 3.04398 94.8255 4.21038 94.8255 5.73678C94.8255 7.26318 94.6671 8.70318 94.3503 10.0568C94.0335 11.4104 93.6015 12.0872 93.0543 12.0872H87.6543V30.6632ZM119.336 31.7H101.019C99.6078 31.7 98.6574 31.5992 98.1678 31.3976C97.6782 31.196 97.4334 30.8792 97.4334 30.4472V3.10158C97.4334 2.35278 97.7646 1.81998 98.427 1.50318C99.1182 1.18638 100.342 1.02798 102.099 1.02798H119.465C120.07 1.02798 120.373 2.03598 120.373 4.05198C120.373 6.03918 120.243 7.56558 119.984 8.63118C119.725 9.66798 119.379 10.1864 118.947 10.1864C117.075 10.1864 113.921 9.99918 109.486 9.62478V12.5192C113.749 12.3464 116.528 12.26 117.824 12.26C118.601 12.26 118.99 13.1672 118.99 14.9816C118.99 16.796 118.832 18.1784 118.515 19.1288C118.227 20.0504 117.824 20.5112 117.305 20.5112L109.486 20.3384V23.1032C114.497 22.7288 117.953 22.5416 119.854 22.5416C120.459 22.5416 120.761 23.5496 120.761 25.5656C120.761 27.5816 120.632 29.108 120.373 30.1448C120.113 31.1816 119.768 31.7 119.336 31.7ZM136.89 31.7H127.429C125.989 31.7 125.025 31.5992 124.535 31.3976C124.045 31.196 123.801 30.8792 123.801 30.4472V2.66958C123.801 1.28718 127.962 0.59598 136.285 0.59598C141.066 0.59598 144.364 1.05678 146.178 1.97838C148.021 2.92878 149.202 4.13838 149.721 5.60718C150.009 6.47118 150.153 7.47918 150.153 8.63118C150.153 10.8776 149.764 12.5624 148.986 13.6856C148.237 14.8088 147.417 15.4424 146.524 15.5864C147.877 15.8744 149.001 16.5368 149.893 17.5736C150.786 18.6104 151.233 20.3672 151.233 22.844C151.233 25.724 150.354 27.8552 148.597 29.2376C147.071 30.4472 144.738 31.2104 141.599 31.5272C140.274 31.6424 138.705 31.7 136.89 31.7ZM136.933 12.8648C138.402 12.8648 139.137 11.8856 139.137 9.92718C139.137 8.94798 138.935 8.22798 138.532 7.76718C138.157 7.27758 137.725 7.03278 137.236 7.03278H135.853V12.8648H136.933ZM135.853 25.2632H136.933C138.402 25.2632 139.137 24.284 139.137 22.3256C139.137 21.3464 138.935 20.6264 138.532 20.1656C138.157 19.676 137.725 19.4312 137.236 19.4312H135.853V25.2632ZM182.167 19.6472C182.167 23.7944 180.972 26.9048 178.582 28.9784C176.22 31.0232 172.778 32.0456 168.257 32.0456C163.764 32.0456 160.308 31.0232 157.889 28.9784C155.47 26.9048 154.26 23.7944 154.26 19.6472V3.79278C154.26 3.07278 155.066 2.42478 156.679 1.84878C158.321 1.27278 160.222 0.98478 162.382 0.98478C164.11 0.98478 165.233 1.31598 165.751 1.97838C166.126 2.49678 166.313 2.94318 166.313 3.31758V16.1912C166.313 19.4456 166.428 21.6056 166.658 22.6712C166.918 23.708 167.45 24.2264 168.257 24.2264C169.063 24.2264 169.567 23.7224 169.769 22.7144C169.999 21.6776 170.114 19.4888 170.114 16.148V3.79278C170.114 3.07278 170.921 2.42478 172.534 1.84878C174.175 1.27278 176.062 0.98478 178.193 0.98478C180.007 0.98478 181.159 1.31598 181.649 1.97838C181.994 2.49678 182.167 2.94318 182.167 3.31758V19.6472ZM192.906 31.7C190.804 31.7 188.845 31.5272 187.031 31.1816C185.216 30.8072 184.309 30.2744 184.309 29.5832C184.309 29.18 184.9 27.8696 186.08 25.652C187.29 23.4056 189.104 20.2376 191.524 16.148C187.204 8.02638 185.044 3.76398 185.044 3.36078C185.044 2.72718 185.951 2.17998 187.765 1.71918C189.608 1.25838 191.279 1.02798 192.776 1.02798C194.303 1.02798 195.541 1.25838 196.492 1.71918C197.471 2.17998 198.004 2.64078 198.09 3.10158L199.775 10.748H199.991L201.2 3.18798C201.229 2.98638 201.575 2.71278 202.237 2.36718C202.9 2.02158 203.778 1.71918 204.872 1.45998C205.996 1.17198 207.277 1.02798 208.717 1.02798C210.186 1.02798 211.41 1.20078 212.389 1.54638C213.368 1.89198 213.858 2.53998 213.858 3.49038C213.858 3.97998 213.34 5.40558 212.303 7.76718C211.266 10.1288 209.696 13.412 207.594 17.6168C212.26 25.1912 214.592 29.18 214.592 29.5832C214.592 30.9944 212.879 31.7 209.452 31.7C204.354 31.7 201.618 31.0088 201.244 29.6264L199.559 23.6216H199.3L197.917 29.6264C197.6 31.0088 195.93 31.7 192.906 31.7Z" fill="#D9614C"/>
</g>
<defs>
<filter id="filter0_d_23_93" x="0.116199" y="0.595978" width="219.276" height="41.0928" filterUnits="userSpaceOnUse" color-interpolation-filters="sRGB">
<feFlood flood-opacity="0" result="BackgroundImageFix"/>
<feColorMatrix in="SourceAlpha" type="matrix" values="0 0 0 0 0 0 0 0 0 0 0 0 0 0 0 0 0 0 127 0" result="hardAlpha"/>
<feOffset dy="4.8"/>
<feGaussianBlur stdDeviation="2.4"/>
<feComposite in2="hardAlpha" operator="out"/>
<feColorMatrix type="matrix" values="0 0 0 0 0 0 0 0 0 0 0 0 0 0 0 0 0 0 0.25 0"/>
<feBlend mode="normal" in2="BackgroundImageFix" result="effect1_dropShadow_23_93"/>
<feBlend mode="normal" in="SourceGraphic" in2="effect1_dropShadow_23_93" result="shape"/>
</filter>
</defs>
</svg>
