<svg width="30" height="30" viewBox="0 0 30 30" fill="none" xmlns="http://www.w3.org/2000/svg">
<path d="M14.5 26.6C7.71995 26.6 2.19995 21.08 2.19995 14.3C2.19995 7.51997 7.71995 1.99997 14.5 1.99997C21.28 1.99997 26.8 7.51997 26.8 14.3C26.8 21.08 21.28 26.6 14.5 26.6ZM14.5 3.79997C8.70395 3.79997 3.99995 8.51597 3.99995 14.3C3.99995 20.084 8.70395 24.8 14.5 24.8C20.296 24.8 25 20.084 25 14.3C25 8.51597 20.296 3.79997 14.5 3.79997Z" fill="#0C0C0C"/>
<path d="M27.1 27.8C26.872 27.8 26.644 27.716 26.464 27.536L24.064 25.136C23.716 24.788 23.716 24.212 24.064 23.864C24.412 23.516 24.988 23.516 25.336 23.864L27.736 26.264C28.084 26.612 28.084 27.188 27.736 27.536C27.556 27.716 27.328 27.8 27.1 27.8Z" fill="#0C0C0C"/>
</svg>
