<svg width="30" height="29" viewBox="0 0 30 29" fill="none" xmlns="http://www.w3.org/2000/svg">
<path fill-rule="evenodd" clip-rule="evenodd" d="M9.69654 3.32481C10.152 3.12566 10.3597 2.59503 10.1605 2.13961C9.9614 1.68419 9.43077 1.47645 8.97535 1.6756C6.26725 2.85983 3.9694 4.80447 2.35059 7.23919C2.07538 7.6531 2.18783 8.21175 2.60174 8.48696C3.01566 8.76216 3.5743 8.64972 3.84951 8.2358C5.279 6.08582 7.30812 4.36924 9.69654 3.32481ZM21.2247 1.6756C20.7693 1.47645 20.2387 1.68419 20.0395 2.13961C19.8404 2.59503 20.0481 3.12566 20.5036 3.32481C22.892 4.36924 24.9211 6.08582 26.3506 8.2358C26.6258 8.64972 27.1844 8.76216 27.5984 8.48695C28.0123 8.21175 28.1247 7.6531 27.8495 7.23919C26.2307 4.80447 23.9328 2.85983 21.2247 1.6756ZM24.0391 22.7755C25.5799 20.8315 26.5 18.3732 26.5 15.7C26.5 9.40393 21.3961 4.29998 15.1 4.29998C8.80398 4.29998 3.70002 9.40393 3.70002 15.7C3.70002 18.3731 4.6201 20.8314 6.16085 22.7754L3.60086 25.9332C3.28784 26.3194 3.3471 26.8861 3.73321 27.1991C4.11933 27.5121 4.68609 27.4529 4.99911 27.0668L7.39935 24.106C9.42786 25.9653 12.1314 27.1 15.1 27.1C18.0686 27.1 20.7721 25.9653 22.8006 24.1061L25.2009 27.0668C25.5139 27.4529 26.0807 27.5121 26.4668 27.1991C26.8529 26.8861 26.9121 26.3193 26.5991 25.9332L24.0391 22.7755ZM15.1 8.79998C15.597 8.79998 16 9.20292 16 9.69998V15.2183L19.1992 17.3511C19.6128 17.6268 19.7245 18.1856 19.4488 18.5992C19.1731 19.0128 18.6143 19.1245 18.2007 18.8488L14.6007 16.4488C14.3503 16.2819 14.2 16.0009 14.2 15.7V9.69998C14.2 9.20292 14.6029 8.79998 15.1 8.79998Z" fill="#D9614C"/>
</svg>
