<svg width="25" height="29" viewBox="0 0 25 29" fill="none" xmlns="http://www.w3.org/2000/svg">
<path d="M8.5 14.74H15.5M8.5 19.54H12.88M10.5 7.29997H14.5C16.5 7.29997 16.5 6.09997 16.5 4.89997C16.5 2.49997 15.5 2.49997 14.5 2.49997H10.5C9.5 2.49997 8.5 2.49997 8.5 4.89997C8.5 7.29997 9.5 7.29997 10.5 7.29997Z" stroke="black" stroke-width="1.8" stroke-miterlimit="10" stroke-linecap="round" stroke-linejoin="round"/>
<path d="M16.5 4.92395C19.83 5.13995 21.5 6.61595 21.5 12.1V19.3C21.5 24.1 20.5 26.5 15.5 26.5H9.5C4.5 26.5 3.5 24.1 3.5 19.3V12.1C3.5 6.62795 5.17 5.13995 8.5 4.92395" stroke="black" stroke-width="1.8" stroke-miterlimit="10" stroke-linecap="round" stroke-linejoin="round"/>
</svg>
