<svg width="30" height="30" viewBox="0 0 30 30" fill="none" xmlns="http://www.w3.org/2000/svg">
<path d="M15.1001 11.3V14.1583C15.1001 14.6128 15.3569 15.0284 15.7634 15.2316L17.5001 16.1M27.1001 14.9C27.1001 21.5274 21.7275 26.9 15.1001 26.9C8.47268 26.9 3.1001 21.5274 3.1001 14.9C3.1001 8.27255 8.47268 2.89996 15.1001 2.89996C21.7275 2.89996 27.1001 8.27255 27.1001 14.9ZM23.5001 14.9C23.5001 19.5392 19.7393 23.3 15.1001 23.3C10.4609 23.3 6.7001 19.5392 6.7001 14.9C6.7001 10.2608 10.4609 6.49996 15.1001 6.49996C19.7393 6.49996 23.5001 10.2608 23.5001 14.9Z" stroke="#28303F" stroke-width="1.8" stroke-linecap="round"/>
</svg>
