<svg width="29" height="29" viewBox="0 0 29 29" fill="none" xmlns="http://www.w3.org/2000/svg">
<path fill-rule="evenodd" clip-rule="evenodd" d="M18.6437 0.923082C16.6718 -1.04882 13.3001 0.347761 13.3001 3.13645C13.3001 3.96662 12.9703 4.76279 12.3833 5.34981L9.7902 7.94293C9.20318 8.52995 8.407 8.85974 7.57683 8.85974C4.78814 8.85974 3.39156 12.2314 5.36346 14.2033L9.16551 18.0053L0.337413 26.8334C-0.112471 27.2833 -0.112471 28.0127 0.337413 28.4626C0.787297 28.9125 1.5167 28.9125 1.96659 28.4626L10.7947 19.6345L14.5967 23.4365C16.5686 25.4084 19.9402 24.0118 19.9402 21.2231C19.9402 20.393 20.27 19.5968 20.857 19.0098L23.4502 16.4166C24.0372 15.8296 24.8334 15.4998 25.6635 15.4998C28.4522 15.4998 29.8488 12.1282 27.8769 10.1563L18.6437 0.923082Z" fill="#D9614C"/>
</svg>
