<svg width="26" height="23" viewBox="0 0 26 23" fill="none" xmlns="http://www.w3.org/2000/svg">
<path d="M19.6392 2.68248L20.2166 1.99206L20.2166 1.99206L19.6392 2.68248ZM23.4941 5.90597L22.9168 6.59639L22.9168 6.59639L23.4941 5.90597ZM6.00002 21.5758V22.4758H7.80002V21.5758H6.00002ZM18 21.5758V22.4758H19.8V21.5758H18ZM16.5 7.42411C16.9971 7.42411 17.4 7.02117 17.4 6.52411C17.4 6.02705 16.9971 5.62411 16.5 5.62411L16.5 7.42411ZM9.30002 5.62411C8.80297 5.62411 8.40002 6.02705 8.40002 6.52411C8.40002 7.02116 8.80297 7.42411 9.30002 7.42411L9.30002 5.62411ZM24 8.74415V17.562H25.8V8.74415H24ZM20.1 20.6758H5.70002V22.4758H20.1V20.6758ZM1.80002 17.562V5.52066H2.43783e-05V17.562H1.80002ZM5.70003 2.40687H16.2451V0.606866H5.70003V2.40687ZM19.0619 3.3729L22.9168 6.59639L24.0715 5.21554L20.2166 1.99206L19.0619 3.3729ZM16.2451 2.40687C17.3264 2.40687 18.3378 2.76742 19.0619 3.3729L20.2166 1.99206C19.1403 1.09207 17.71 0.606866 16.2451 0.606866V2.40687ZM5.70002 20.6758C3.38862 20.6758 1.80002 19.1377 1.80002 17.562H2.43783e-05C2.43783e-05 20.4199 2.7095 22.4758 5.70002 22.4758V20.6758ZM24 17.562C24 19.1377 22.4114 20.6758 20.1 20.6758V22.4758C23.0906 22.4758 25.8 20.4199 25.8 17.562H24ZM25.8 8.74415C25.8 7.38367 25.1525 6.11949 24.0715 5.21554L22.9168 6.59639C23.6361 7.19791 24 7.97557 24 8.74415H25.8ZM1.80002 5.52066C1.80002 3.94503 3.38862 2.40687 5.70003 2.40687V0.606866C2.7095 0.606866 2.43783e-05 2.66278 2.43783e-05 5.52066H1.80002ZM7.80002 21.5758V15.5551H6.00002V21.5758H7.80002ZM9.30002 14.4482H16.5V12.6482H9.30002V14.4482ZM18 15.5551V21.5758H19.8V15.5551H18ZM16.5 14.4482C17.4859 14.4482 18 15.0879 18 15.5551H19.8C19.8 13.8056 18.1651 12.6482 16.5 12.6482V14.4482ZM7.80002 15.5551C7.80002 15.0879 8.3141 14.4482 9.30002 14.4482V12.6482C7.63498 12.6482 6.00002 13.8056 6.00002 15.5551H7.80002ZM16.5 5.62411L9.30002 5.62411L9.30002 7.42411L16.5 7.42411L16.5 5.62411Z" fill="#28303F"/>
</svg>
